<svg xmlns="http://www.w3.org/2000/svg" fill-rule="evenodd" viewBox="0 0 100 100" fill="#0d6efd">
    <path d="M50.349 16.726c-18.504 0-33.558 15.059-33.558 33.569 0 18.509 15.054 33.566 33.558 33.566 18.509 0 33.567-15.058 33.567-33.566a1.5 1.5 0 0 0-1.5-1.5H51.849V18.226a1.5 1.5 0 0 0-1.5-1.5zM80.88 51.795c-.785 16.16-14.179 29.066-30.531 29.066-16.85 0-30.558-13.712-30.558-30.566 0-16.353 12.902-29.748 29.058-30.533v30.533a1.5 1.5 0 0 0 1.5 1.5H80.88z"/>
    <path d="M78.89 79.078a39.963 39.963 0 0 1-2.589 2.322 41.437 41.437 0 0 1-4.992 3.53C52.046 96.497 26.965 90.239 15.4 70.981c-5.604-9.331-7.239-20.285-4.603-30.846 2.636-10.559 9.226-19.46 18.557-25.063 9.331-5.605 20.286-7.24 30.844-4.605 10.245 2.556 18.92 8.842 24.546 17.735l-3.487-1.121a1.5 1.5 0 0 0-.918 2.856l6.967 2.239a1.5 1.5 0 0 0 1.885-.961l2.32-7.081a1.5 1.5 0 0 0-2.852-.935l-1.204 3.676c-6.035-9.696-15.424-16.549-26.53-19.32C49.587 4.729 37.827 6.484 27.809 12.5 17.792 18.516 10.716 28.073 7.886 39.409c-2.83 11.338-1.075 23.099 4.941 33.117 8.195 13.645 22.706 21.21 37.572 21.21 7.662 0 15.42-2.011 22.454-6.234a44.16 44.16 0 0 0 2.243-1.451c.033-.019.069-.027.1-.048a40.992 40.992 0 0 0 2.553-1.901c.143-.115.281-.24.423-.357.098-.08.199-.157.296-.238.026-.022.045-.048.07-.071a42.773 42.773 0 0 0 2.458-2.221 1.5 1.5 0 1 0-2.106-2.137zm9.826-11.374a1.501 1.501 0 0 0-2.016.662 41.226 41.226 0 0 1-3.74 6.052 1.502 1.502 0 0 0 1.201 2.398c.457 0 .909-.208 1.203-.603a44.417 44.417 0 0 0 4.014-6.493 1.501 1.501 0 0 0-.662-2.016zm3.473-11.739a1.51 1.51 0 0 0-1.743 1.21 41.395 41.395 0 0 1-1.737 6.528 1.5 1.5 0 1 0 2.826 1.006 44.535 44.535 0 0 0 1.864-7.001 1.5 1.5 0 0 0-1.21-1.743z"/>
</svg>
